# xmcd CD database file
#
# Track frame offsets:
#	150
#	12500
#	24767
#	37647
#	48090
#	60272
#	77047
#	87920
#	102155
#	123395
#
# Disc length: 1799 seconds
#
# Revision: 4
# Processed by: cddbd v1.5.1PL0 Copyright (c) Steve Scherf et al.
# Submitted via: CDex 1.51
#
DISCID=6207050a
DTITLE=Johnny Winter - Livin' The Blues (Delta)
DYEAR=1998
DGENRE=Blues
TTITLE0=Parchman Farm
TTITLE1=Livin' In The Blues
TTITLE2=Leavin' Blues
TTITLE3=32-20 Blues
TTITLE4=Bad News
TTITLE5=Kind Hearted Woman
TTITLE6=Out Of Sight
TTITLE7=Low Down Gal Of Mine
TTITLE8=Goin' Down Slow
TTITLE9=Avocado Green
EXTD=YEAR: 1998
EXTT0=
EXTT1=
EXTT2=
EXTT3=
EXTT4=
EXTT5=
EXTT6=
EXTT7=
EXTT8=
EXTT9=
PLAYORDER=
